<svg id="Groupe_288" data-name="Groupe 288" xmlns="http://www.w3.org/2000/svg" xmlns:xlink="http://www.w3.org/1999/xlink" width="800" height="960" viewBox="0 0 800 960">
  <defs>
    <linearGradient id="linear-gradient" y1="1" x2="1" gradientUnits="objectBoundingBox">
      <stop offset="0" stop-color="#eb1e23"/>
      <stop offset="1" stop-color="#fff"/>
    </linearGradient>
    <linearGradient id="linear-gradient-2" x1="0.897" y1="0.14" x2="0.206" y2="0.877" gradientUnits="objectBoundingBox">
      <stop offset="0" stop-color="#43425d"/>
      <stop offset="1"/>
    </linearGradient>
    <clipPath id="clip-path">
      <path id="Tracé_363" data-name="Tracé 363" d="M0,0H800V960H0Z" transform="translate(-25 58)" fill="url(#linear-gradient)"/>
    </clipPath>
    <linearGradient id="linear-gradient-3" x1="0.5" x2="0.5" y2="1" gradientUnits="objectBoundingBox">
      <stop offset="0" stop-color="#eb1e23"/>
      <stop offset="1" stop-color="#fff" stop-opacity="0"/>
    </linearGradient>
  </defs>
  <rect id="Rectangle_176" data-name="Rectangle 176" width="800" height="960" fill="url(#linear-gradient-2)"/>
  <g id="Groupe_de_masques_1" data-name="Groupe de masques 1" transform="translate(25 -58)" clip-path="url(#clip-path)">
    <g id="Products_Sold_Graph" data-name="Products Sold Graph" transform="translate(-585.529 331.726)" opacity="0.201">
      <path id="Filled.Graph" d="M330,764.877V546.706s308.5,143.1,555,152.089c266.539-8.71,312.693-69.952,520.308-152.089,177.416-68.461,354.346-87.251,524.168-82.413s317.013,78.793,517.612,86.372c353.879-30.534,534.429-184.911,558.338-249.388v544.74L330,846.259Z" transform="translate(-317.723 -288.325)" opacity="0.7" fill="url(#linear-gradient-3)"/>
      <path id="Line.Graph" d="M313,493.785S619.512,640.3,861.863,643.452s335.438-75.606,521.062-149.472,362.09-86.472,524.554-83.989,320.4,79.889,520.019,84,522.561-133.8,558.472-248.748" transform="translate(-298.268 -234.833)" fill="none" stroke="#eb1e23" stroke-width="2"/>
      <g id="Mar.Ellipse" transform="translate(1072.897 247.907)" fill="#fff" stroke="#a4a1fb" stroke-width="2">
        <circle cx="12.259" cy="12.259" r="12.259" stroke="none"/>
        <circle cx="12.259" cy="12.259" r="11.259" fill="none"/>
      </g>
      <g id="Feb.Ellipse" transform="translate(718.407 383.633)" fill="#fff" stroke="#a4a1fb" stroke-width="2">
        <circle cx="12.259" cy="12.259" r="12.259" stroke="none"/>
        <circle cx="12.259" cy="12.259" r="11.259" fill="none"/>
      </g>
    </g>
    <g id="Products_Sold_Graph-2" data-name="Products Sold Graph" transform="translate(-712.529 564.726)" opacity="0.201">
      <path id="Filled.Graph-2" data-name="Filled.Graph" d="M330,764.877V546.706s308.5,143.1,555,152.089c266.539-8.71,312.693-69.952,520.308-152.089,177.416-68.461,354.346-87.251,524.168-82.413s317.013,78.793,517.612,86.372c353.879-30.534,534.429-184.911,558.338-249.388v544.74L330,846.259Z" transform="translate(-317.723 -288.325)" opacity="0.7" fill="url(#linear-gradient-3)"/>
      <path id="Line.Graph-2" data-name="Line.Graph" d="M313,493.785S619.512,640.3,861.863,643.452s335.438-75.606,521.062-149.472,362.09-86.472,524.554-83.989,320.4,79.889,520.019,84,522.561-133.8,558.472-248.748" transform="translate(-298.268 -234.833)" fill="none" stroke="#eb1e23" stroke-width="2"/>
      <g id="Mar.Ellipse-2" data-name="Mar.Ellipse" transform="translate(1072.897 247.907)" fill="#fff" stroke="#a4a1fb" stroke-width="2">
        <circle cx="12.259" cy="12.259" r="12.259" stroke="none"/>
        <circle cx="12.259" cy="12.259" r="11.259" fill="none"/>
      </g>
    </g>
    <g id="Total_Views_Graph" data-name="Total Views Graph" transform="translate(-743.926 354.582)" opacity="0.201">
      <path id="Filled.Graph-3" data-name="Filled.Graph" d="M330,687.576V354.422S631.107,685.647,878.452,698.112c275.977-2.807,278.239-171.952,520.751-264.548,203.024-72.706,357.942,125.622,527.763,130.459s287.023-135.926,518.71-145.705c300.179,14.727,541.051,202.792,559.742,212.9V768.716L330,768.958Z" transform="translate(-313.715 -344.568)" opacity="0.7" fill="url(#linear-gradient-3)"/>
      <path id="Line.Graph-3" data-name="Line.Graph" d="M312.953,279.164S623.431,616.493,866.082,619.648s325.629-198.754,520.459-266.824,363.846,129.84,526.511,132.324,318.406-148.686,518.271-144.577S2859.7,459.03,2986.03,549.234" transform="translate(-298.327 -266.489)" fill="none" stroke="#eb1e23" stroke-width="2"/>
      <g id="May.Ellipse" transform="translate(2114.927 61.363)" fill="#fff" stroke="#55d8fe" stroke-width="2">
        <circle cx="12.259" cy="12.259" r="12.259" stroke="none"/>
        <circle cx="12.259" cy="12.259" r="11.259" fill="none"/>
      </g>
      <g id="Mar.Ellipse-3" data-name="Mar.Ellipse" transform="translate(1155.767 60.537)" fill="#fff" stroke="#eb1e23" stroke-width="2">
        <circle cx="12.259" cy="12.259" r="12.259" stroke="none"/>
        <circle cx="12.259" cy="12.259" r="11.259" fill="none"/>
      </g>
    </g>
    <g id="Total_Views_Graph-2" data-name="Total Views Graph" transform="translate(-1046.649 464.919)" opacity="0.201">
      <path id="Filled.Graph-4" data-name="Filled.Graph" d="M330,687.576V354.422S631.107,685.647,878.452,698.112c275.977-2.807,278.239-171.952,520.751-264.548,203.024-72.706,357.942,125.622,527.763,130.459s287.023-135.926,518.71-145.705c300.179,14.727,541.051,202.792,559.742,212.9V768.716L330,768.958Z" transform="translate(-314.715 -344.568)" opacity="0.7" fill="url(#linear-gradient-3)"/>
      <path id="Line.Graph-4" data-name="Line.Graph" d="M312.953,279.164S623.431,616.493,866.082,619.648s325.629-198.754,520.459-266.824,363.846,129.84,526.511,132.324,318.406-148.686,518.271-144.577S2859.7,459.03,2986.03,549.234" transform="translate(-298.327 -266.489)" fill="none" stroke="#eb1e23" stroke-width="2"/>
      <g id="Apr.Ellipse" transform="translate(1701.637 192.18)" fill="#fff" stroke="#eb1e23" stroke-width="2">
        <circle cx="12.259" cy="12.259" r="12.259" stroke="none"/>
        <circle cx="12.259" cy="12.259" r="11.259" fill="none"/>
      </g>
      <g id="Mar.Ellipse-4" data-name="Mar.Ellipse" transform="translate(1073.43 73.636)" fill="#fff" stroke="#eb1e23" stroke-width="2">
        <circle cx="12.259" cy="12.259" r="12.259" stroke="none"/>
        <circle cx="12.259" cy="12.259" r="11.259" fill="none"/>
      </g>
    </g>
  </g>
</svg>
